{"title":"The.Forest.2016.WEB-DL.XviD.AC3-RARBG","uid":13998312,"size":1490931178,"categoryP":"video","categoryS":"movies","magnet":"?xt=urn:btih:4c24ac0eb38abbd2e84366c465b6ae2ad2880b9e&amp;dn=The.Forest.2016.WEB-DL.XviD.AC3-RARBG&amp;tr=udp%3A%2F%2Ftracker.leechers-paradise.org%3A6969&amp;tr=udp%3A%2F%2Fzer0day.ch%3A1337&amp;tr=udp%3A%2F%2Fopen.demonii.com%3A1337&amp;tr=udp%3A%2F%2Ftracker.coppersurfer.tk%3A6969&amp;tr=udp%3A%2F%2Fexodus.desync.com%3A6969","seeders":0,"leechers":1,"uploader":"makintos13","files":5,"time":1458762271,"description":"The.Forest.2016.WEB-DL.XviD.AC3-RARBG\r\n\r\nScreens:\r\n \nhttp://imgmak.com/KFM\r\n \nhttp://imgmak.com/KFO\r\n \nhttp://imgmak.com/KFP\r\n \nhttp://imgmak.com/KFY\r\n \nhttp://imgmak.com/KF0\r\n\r\n:::::::::::::::\r\n\r\nVideo\r\nID                                       : 0\r\nFormat                                   : MPEG-4 Visual\r\nFormat profile                           :   \r\nFormat settings, BVOP                    : No\r\nFormat settings, QPel                    : No\r\nFormat settings, GMC                     : No warppoints\r\nFormat settings, Matrix                  : Default (H.263)\r\nCodec ID                                 : XVID\r\nCodec ID/Hint                            : XviD\r\nDuration                                 : 1h 33mn\r\nBit rate                                 : 1 736 Kbps\r\nWidth                                    : 720 pixels\r\nHeight                                   : 384 pixels\r\nDisplay aspect ratio                     : 1.85:1\r\nFrame rate                               : 23.976 fps\r\nColor space                              : YUV\r\nChroma subsampling                       : 4:2:0\r\nBit depth                                : 8 bits\r\nScan type                                : Progressive\r\nCompression mode                         : Lossy\r\nBits/(Pixel*Frame)                       : 0.262\r\nStream size                              : 1.13 GiB (82%)\r\nWriting library                          : Lavc56.13.100\r\n\r\nAudio\r\nID                                       : 1\r\nFormat                                   : AC-3\r\nFormat/Info                              : Audio Coding 3\r\nMode extension                           : CM (complete main)\r\nFormat settings, Endianness              : Big\r\nCodec ID                                 : 2000\r\nDuration                                 : 1h 33mn\r\nBit rate mode                            : Constant\r\nBit rate                                 : 384 Kbps\r\nChannel(s)                               : 6 channels\r\nChannel positions                        : Front: L C R, Side: L R, LFE\r\nSampling rate                            : 48.0 KHz\r\nFrame rate                               : 31.250 fps (1536 spf)\r\nCompression mode                         : Lossy\r\nStream size                              : 256 MiB (18%)\r\nAlignment                                : Aligned on interleaves\r\nInterleave, duration                     : 42 ms (1.00 video frame)\r\nInterleave, preload duration             : 512 ms","torrent":{"xt":"urn:btih:4c24ac0eb38abbd2e84366c465b6ae2ad2880b9e","amp;dn":"The.Forest.2016.WEB-DL.XviD.AC3-RARBG","amp;tr":["udp%3A%2F%2Ftracker.leechers-paradise.org%3A6969","udp%3A%2F%2Fzer0day.ch%3A1337","udp%3A%2F%2Fopen.demonii.com%3A1337","udp%3A%2F%2Ftracker.coppersurfer.tk%3A6969","udp%3A%2F%2Fexodus.desync.com%3A6969"],"infoHash":"4c24ac0eb38abbd2e84366c465b6ae2ad2880b9e","infoHashBuffer":{"type":"Buffer","data":[76,36,172,14,179,138,187,210,232,67,102,196,101,182,174,42,210,136,11,158]},"announce":[],"urlList":[]}}